<?xml version="1.0" encoding="utf-8"?>
<!-- Generator: Adobe Illustrator 24.2.1, SVG Export Plug-In . SVG Version: 6.00 Build 0)  -->
<svg version="1.1" id="Capa_1" xmlns="http://www.w3.org/2000/svg" xmlns:xlink="http://www.w3.org/1999/xlink" x="0px" y="0px"
	 viewBox="0 0 512 512" style="enable-background:new 0 0 512 512;" xml:space="preserve">

	 


<style type="text/css">
	.st0{fill:#6CC091;}
</style>
<g>
	<path class="st0" d="M255.9,67.5C144.3-30.1,2.4,55.6,0,171.9c-0.6,29.6,8,58.5,25,85.1h110.4l19.6-32.7c5.7-9.5,19.5-9.8,25.5-0.3
		l41.4,65.1l60.4-127.4c5.3-11.1,21-11.5,26.8-0.7l51.7,96.1h125.9C579.9,111.3,395.6-54.8,255.9,67.5L255.9,67.5z"/>
	<path class="st0" d="M338.6,279.1l-41.9-77.9l-59.3,125.2c-5,10.7-19.9,11.6-26.2,1.6l-43-67.5l-11.5,19.2
		c-2.7,4.5-7.6,7.3-12.9,7.3H48.7c3,3.1-12.9-12.7,196.5,195.6c5.8,5.8,15.3,5.8,21.2,0C472.7,277.5,460,290.1,463,287H351.8
		C346.3,287,341.3,284,338.6,279.1L338.6,279.1z"/>
</g>
</svg>
